<?xml version="1.0" encoding="UTF-8"?>
<svg id="Layer_1" xmlns="http://www.w3.org/2000/svg" version="1.1" viewBox="0 0 232.85 219.06">
  <!-- Generator: Adobe Illustrator 30.0.0, SVG Export Plug-In . SVG Version: 2.1.1 Build 123)  -->
  <defs>
    <style>
      .st0 {
        fill: #291b4f;
        fill-rule: evenodd;
      }
    </style>
  </defs>
  <path class="st0" d="M54.39,162.92c.06,1.73.21,3.45.45,5.14.64,4.47,1.8,8.98,3.56,13.14,1.81,4.27,4.37,8.32,7.92,11.36,2.83,2.42,6.28,4.13,9.99,4.63,3.5.46,7.07-.19,10.22-1.75,3.52-1.74,6.43-4.53,8.63-7.77,2.72-4.01,4.35-8.69,5.2-13.44.66-3.73.85-7.53.69-11.31-.83-19.19-15.19-39.75-33.18-29.96-.93.51-5.38,2.93-9.08,9.67-3.35,6.11-4.64,13.3-4.4,20.3ZM43.02,151.28c.42-1.15.91-2.28,1.48-3.38,1.23-2.36,2.73-4.57,4.4-6.65,1.54-1.92,3.28-3.69,5.25-5.18,1.41-1.07,9.15-6.91,20.78-7.66,35.86-2.29,48.19,34.82,33.99,55.29-1.89,2.73-4.14,5.21-6.69,7.34-2.42,2.02-5.1,3.71-7.96,5.02-2.79,1.28-5.73,2.21-8.75,2.77s-6.04.77-9.07.63-6.02-.6-8.94-1.4c-2.89-.79-5.7-1.89-8.34-3.31-2.62-1.41-5.08-3.12-7.29-5.12s-4.17-4.29-5.78-6.81c-1.66-2.6-2.95-5.43-3.82-8.39-.94-3.2-1.38-6.53-1.39-9.86-.01-4.51.59-9.08,2.14-13.32Z"/>
  <path class="st0" d="M120.14.06c8.26-.52,16.76,2.37,21.92,8.75,5.31,6.57,6.93,15.79,6.68,24.01-.01.43-.03.85-.04,1.28,0,.2-.01.41-.01.61,0,2.14-.04,4.28-.04,6.43,0,1.44-.47,4.19,1.63,4.18,11.33-.02,13.5-.49,13.17,1.63-.12.76-1.89.78-2.41.83-1.66.14-3.34.1-5,.06-1.35-.03-2.7-.08-4.06-.1-6.67-.13-3.28,17.72-3.28,21.71.03,31.86-.89,39.05,5.69,39.72,4.72.48,6.5-2.99,7.23-3.9,1.27-1.58,1.94-.07,1.79.4-3,9.02-21.51,14.13-26.25-.02-2.33-6.97-1.18-15.98-1.24-23.21-.09-10.36.19-20.72.19-31.08-.01-.9-.01-1.82-.13-2.72-.02-.13-.04-.27-.1-.38-.11-.18-.32-.27-.51-.34-.98-.32-2.08-.25-3.09-.25-1.12,0-2.24.03-3.35.02-.47,0-.99-.03-1.3-.37-.28-.3-.29-.8-.04-1.12.15-.19.35-.31.56-.43,1.42-.77,3.09-1.1,4.62-1.59,1.61-.52,3.22-1.11,4.64-2.04,18.23-12.01,6.87-36.31-17.23-34.03-32.31,3.06-39.26,38.94-62.39,99.59-1.74,4.57-.68,6.79-5.55,6.36-1.33-.12-2.46-4.02-5.58-11.95C17.13,27.22,18.06,24.47,9.85,22.39c-3.18-.81-.67-1.78-.52-1.78,2.38-.04,27.92-.48,29.71.11,2.8.92-2.55,1.62-4.15,3.29-4.48,4.69-1.18,9.85,20.7,66.44.97,2.5,1.81,4.6,3.25,6.87,6.1-16.45,12.2-32.9,18.31-49.35,3.59-9.67,7.23-19.45,12.96-28.03,5.73-8.58,13.85-15.98,23.77-18.82,2.03-.58,4.14-.94,6.26-1.07Z"/>
  <path class="st0" d="M208.84,68.21c-1.07-.23-2.36,1.5-2.93,2.13-.84.92-1.63,2.02-2.64,2.76-5.96,4.38-13.73,6.54-18.19,12.43-4.94,6.53-4.51,17.04,2.83,21.61,6.43,4.01,14.4,1.4,18.27-4.82,2.56-4.11,3.33-9.08,3.46-13.92.14-5.14,0-10.28-.05-15.41-.01-1.27.32-2.58.05-3.85-.08-.37-.28-.73-.62-.89-.06-.03-.12-.05-.18-.06ZM209.84,101.69c-.06-.19-.15-.33-.28-.4-.49-.24-.47.38-.64.73-8.88,18.34-38.13,15.34-40.09-1.97-3.2-28.3,37.88-19.27,40.21-39.3,2.61-22.36-31.57-16.31-22.66-2.96,5.02,7.52-4.69,13.04-10.35,8.34-8.12-6.75,3.19-24.7,24.82-22.4,26.87,2.86,20.82,23.25,21.35,55.84.05,2.95.71,10.22,5.44,8.83.72-.21,1.39-.62,1.96-1.11.82-.7,1.29-1.79,2.17-2.4.13-.09.28-.17.44-.16.49.04.63.77.61,1.15-.06.94-.93,1.93-1.5,2.62-.68.83-1.47,1.58-2.33,2.22-1.73,1.3-3.76,2.2-5.88,2.64-2.88.59-6.05.31-8.5-1.34-2.9-1.95-4.35-5.53-4.64-9.01-.02-.28,0-.91-.14-1.34Z"/>
  <path class="st0" d="M209.65,151.84s-.03-.03-.04-.04c-.56-.24-.93.45-1.11.84-.16.34-.28.73-.5,1.03-.6.82-1.36,1.56-2.12,2.24-1.59,1.44-3.4,2.63-5.26,3.69-3.03,1.73-6.22,3.17-9.15,5.05-4.42,2.84-8.39,7.05-9.35,12.38-.91,5.07-.05,10.75,4.13,14.19,3.41,2.8,8.34,3.61,12.47,2.06,3.51-1.32,6.76-4.28,8.52-7.57,1.84-3.44,2.19-7.46,2.33-11.36.12-3.33.12-6.66.11-9.99-.02-3.33-.05-6.66-.02-9.99,0-.45.01-.9.02-1.35,0-.2.13-.98-.02-1.17ZM222.42,187.46c.2,1.06.47,5.88,4.79,5.85,2.69-.01,4.35-4.86,5.51-3.22,1.47,2.09-8.99,12.79-18.61,6.3-5.68-3.83-3.3-13.4-5.4-9.09-9.52,19.55-45.39,14.18-39.51-10.05,5.04-20.73,42.07-12.48,39.93-35.77-1.53-16.67-27.88-11.47-23.94-.99.12.32,6.28,7.79-.95,11.51-6.98,3.6-15.82-5.93-6.92-16.03,9.67-10.97,39.32-11.15,43.8,7.01,2.41,9.79.39,34.25,1.3,44.46Z"/>
  <path class="st0" d="M24.07,189.01c.05,1.69,0,5.13,1.54,6.2.38.27.84.39,1.29.52,5.58,1.53,10.96,3.24,16.38,5.28.39.15.78.29,1.17.44,4.67,1.76,9.39,3.45,14.17,4.9,2.31.7,4.63,1.35,6.99,1.83.7.14,1.41.31,2.12.4,1.97.26,13.44,2.92,27.54-1.98,13.54-4.71,18.43-14.62,19.05-12.05.63,2.64-21.22,39.85-63.85,17.29-17.2-9.1-31.93-22.22-49.23-10.86-.98.64-2.07-.42-.23-2.17,6.2-5.91,10.94-3.5,11.4-15.97.1-2.63.1-64.12-.01-66.37-.57-11.2-3.4-10.19-7.39-11.41-.88-.27-.73-1.43.02-1.72,6.33-2.45,13.25-5.31,19.86-6.44l-.8,92.13Z"/>
  <path class="st0" d="M101.14,49.69c4.07-1.38,8.06-2.96,12.09-4.48.76-.29,2.15-1.08,2.86-.33.7.74.04,48.22.36,55.71.49,11.51,6.84,9.86,7.98,11.1.24.26.52.63.11.87-.28.17-.65.21-.97.25-.64.09-1.28.12-1.93.15-2.46.11-4.93.1-7.4.08-3.17-.02-6.34-.04-9.51-.06-2.53-.02-5.06-.04-7.59-.06-1.91-.01-1.13-1.32-.9-1.47,2.14-1.5,6.87,1.01,7.5-11.38.13-2.58.13-34.81.03-36.77-.62-12.72-6.42-9.34-7.7-10.67-.9-.94,1-1.65,1.65-1.85,1.14-.35,2.27-.71,3.4-1.09Z"/>
  <path class="st0" d="M117.33,29.65c.14.7.19,1.42.14,2.14-.03.52-.12,1.03-.26,1.53-.56,2.08-1.89,3.93-3.9,4.8-2.33,1.01-5.13.73-7.33-.5-2.38-1.33-3.86-3.78-3.8-6.53.02-1.03.24-2.06.58-3.03,1.01-2.87,4.28-4.67,7.21-4.78,3.76-.14,6.65,2.89,7.35,6.37Z"/>
  <path class="st0" d="M142.17,146.42c.65-2.37,1.3-6.79,6.81-12.6,11.32-11.92,27.45-1.58,20.74,8.02-2.61,3.73-9.12,3.49-10.88-.46-.35-.79-1.61-6.28-6.34-5.16-13.04,3.08-10.78,35.32-10.77,40.49.02,14.87.07,17.19,7.75,19.4.43.12.79.64.63,1.08-.42,1.16-4.21.59-5.11.59-2.3,0-4.61,0-6.91,0-2.84,0-5.67,0-8.51.01-2.42,0-5.68.55-8-.24-2.01-.69,1.3-1.56,1.73-1.73,1.31-.5,2.56-1.22,3.49-2.28,1.04-1.19,1.62-2.72,1.9-4.27.91-4.96.47-10.54.54-15.58.08-5.59.1-11.18.03-16.77-.04-3.18-.11-6.36-.3-9.53-.1-1.7-.07-3.7-.69-5.32-2.36-6.21-8.71-3.42-6.91-5.72.83-1.05,1.31-.15,15.78-5.77.34-.13,3.95-1.53,4.45-.75.12.18.39,8.81-.17,16.19l.73.4Z"/>
  <path class="st0" d="M93.67,159.3c-8.45,2.93-13.33,11.81-11.28,20.52-2.93-8.45-11.81-13.33-20.52-11.27,8.45-2.93,13.33-11.81,11.28-20.52,2.93,8.45,11.82,13.33,20.52,11.28Z"/>
</svg>