<?xml version="1.0" encoding="UTF-8"?>
<svg id="Layer_1" xmlns="http://www.w3.org/2000/svg" version="1.1" viewBox="0 0 399.83 116.13">
  <!-- Generator: Adobe Illustrator 30.0.0, SVG Export Plug-In . SVG Version: 2.1.1 Build 123)  -->
  <defs>
    <style>
      .st0 {
        fill: #291b4f;
        fill-rule: evenodd;
      }
    </style>
  </defs>
  <path class="st0" d="M96.79.05c7.14-.45,14.5,2.05,18.96,7.57,4.59,5.68,6,13.66,5.77,20.77-.01.37-.03.74-.04,1.11,0,.18-.01.35-.01.53,0,1.85-.03,3.71-.03,5.56,0,1.25-.41,3.62,1.41,3.62,9.8-.02,11.68-.43,11.39,1.41-.1.66-1.64.68-2.09.71-1.44.12-2.88.09-4.32.05-1.17-.03-2.33-.07-3.51-.09-5.77-.11-2.84,15.33-2.84,18.78.03,27.56-.77,33.78,4.92,34.36,4.09.42,5.62-2.59,6.25-3.37,1.1-1.37,1.68-.06,1.55.34-2.6,7.8-18.61,12.22-22.7-.01-2.02-6.03-1.02-13.82-1.07-20.07-.08-8.96.16-17.92.16-26.88-.01-.78-.01-1.58-.11-2.35-.01-.11-.03-.23-.09-.33-.09-.16-.27-.24-.45-.29-.85-.27-1.8-.21-2.68-.22-.97,0-1.93.03-2.9.02-.4,0-.86-.03-1.13-.32-.24-.26-.25-.69-.04-.97.13-.16.31-.27.49-.37,1.23-.67,2.67-.95,3.99-1.37,1.39-.45,2.78-.96,4.01-1.77,15.77-10.39,5.94-31.41-14.9-29.43-27.95,2.65-33.96,33.68-53.97,86.14-1.51,3.95-.58,5.88-4.8,5.5-1.15-.1-2.12-3.48-4.83-10.34C7.68,23.55,8.48,21.16,1.39,19.36c-2.75-.7-.58-1.54-.45-1.54,2.06-.04,24.15-.41,25.7.1,2.42.8-2.21,1.4-3.59,2.85-3.88,4.06-1.02,8.52,17.91,57.47.84,2.16,1.57,3.98,2.81,5.95,5.28-14.23,10.56-28.46,15.83-42.68,3.1-8.37,6.25-16.82,11.21-24.24,4.96-7.42,11.98-13.82,20.56-16.28,1.76-.5,3.58-.81,5.42-.93Z"/>
  <path class="st0" d="M173.5,59c-.92-.2-2.04,1.3-2.54,1.84-.73.79-1.41,1.75-2.29,2.39-5.15,3.79-11.87,5.66-15.73,10.76-4.27,5.65-3.9,14.74,2.45,18.7,5.56,3.47,12.46,1.21,15.81-4.17,2.21-3.55,2.88-7.86,2.99-12.04.12-4.44,0-8.89-.04-13.33,0-1.1.28-2.23.04-3.33-.07-.32-.24-.63-.53-.77-.05-.02-.1-.04-.15-.05ZM174.37,87.96c-.05-.16-.13-.29-.24-.34-.43-.2-.41.33-.55.63-7.68,15.86-32.98,13.27-34.68-1.7-2.77-24.48,32.76-16.67,34.78-33.99,2.26-19.34-27.3-14.11-19.6-2.56,4.35,6.51-4.06,11.28-8.96,7.21-7.03-5.84,2.76-21.36,21.47-19.37,23.24,2.47,18.01,20.11,18.47,48.3.04,2.55.62,8.84,4.71,7.64.63-.18,1.2-.54,1.69-.96.71-.61,1.11-1.55,1.88-2.07.11-.08.24-.15.38-.14.43.03.55.66.53,1-.05.81-.81,1.67-1.3,2.27-.59.72-1.27,1.36-2.02,1.92-1.5,1.12-3.25,1.91-5.08,2.28-2.49.51-5.24.27-7.35-1.16-2.51-1.69-3.77-4.78-4.01-7.79-.02-.24,0-.79-.12-1.16Z"/>
  <path class="st0" d="M379.77,57.99s-.02-.03-.04-.03c-.49-.21-.8.39-.96.72-.14.29-.24.63-.44.89-.52.71-1.18,1.35-1.83,1.94-1.38,1.25-2.94,2.27-4.55,3.19-2.62,1.5-5.38,2.74-7.92,4.37-3.83,2.46-7.26,6.1-8.08,10.71-.78,4.38-.04,9.3,3.57,12.27,2.95,2.43,7.21,3.12,10.79,1.78,3.03-1.14,5.85-3.7,7.37-6.55,1.59-2.98,1.9-6.46,2.02-9.83.1-2.88.11-5.76.09-8.64s-.05-5.76-.02-8.65c0-.39,0-.78.02-1.17,0-.17.11-.85-.02-1.02ZM390.81,88.79c.17.92.41,5.08,4.14,5.06,2.33-.01,3.76-4.2,4.76-2.78,1.27,1.8-7.77,11.06-16.1,5.45-4.91-3.31-2.85-11.59-4.67-7.87-8.24,16.91-39.26,12.27-34.17-8.69,4.36-17.93,36.39-10.79,34.53-30.94-1.33-14.42-24.11-9.92-20.7-.85.1.27,5.43,6.74-.82,9.96-6.04,3.11-13.68-5.13-5.99-13.87,8.36-9.49,34.01-9.65,37.89,6.06,2.09,8.47.34,29.63,1.12,38.46Z"/>
  <path class="st0" d="M215.81,90.13c.04,1.46,0,4.43,1.33,5.36.33.23.73.34,1.12.45,4.83,1.32,9.48,2.8,14.17,4.57.34.13.67.25,1.01.38,4.04,1.52,8.12,2.98,12.25,4.24,1.99.61,4.01,1.17,6.05,1.59.6.12,1.22.27,1.83.35,1.7.23,11.62,2.53,23.82-1.71,11.71-4.07,15.94-12.65,16.48-10.42.55,2.28-18.36,34.47-55.23,14.95-14.87-7.87-27.62-19.22-42.58-9.39-.84.55-1.79-.36-.2-1.88,5.36-5.11,9.46-3.02,9.86-13.82.08-2.27.09-55.46,0-57.41-.49-9.69-2.94-8.82-6.39-9.87-.76-.23-.63-1.24.01-1.49,5.48-2.12,11.46-4.59,17.18-5.57l-.7,79.69Z"/>
  <path class="st0" d="M80.35,42.98c3.52-1.19,6.97-2.56,10.46-3.87.65-.25,1.86-.94,2.48-.29.61.64.04,41.71.31,48.19.43,9.96,5.92,8.53,6.9,9.6.21.23.45.54.1.75-.24.14-.56.18-.83.22-.55.08-1.11.11-1.67.13-2.13.09-4.27.08-6.4.07-2.74-.02-5.48-.03-8.23-.05-2.19-.01-4.38-.03-6.57-.05-1.66-.01-.98-1.14-.78-1.27,1.85-1.3,5.94.88,6.49-9.85.11-2.23.11-30.11.03-31.8-.54-11-5.55-8.08-6.66-9.23-.78-.81.87-1.43,1.43-1.6.99-.3,1.97-.62,2.94-.94Z"/>
  <path class="st0" d="M94.35,25.64c.12.61.17,1.23.13,1.85-.03.45-.1.89-.22,1.33-.49,1.8-1.63,3.4-3.37,4.15-2.02.88-4.44.63-6.34-.43-2.06-1.15-3.34-3.27-3.29-5.65.02-.89.21-1.78.5-2.62.87-2.49,3.71-4.04,6.23-4.13,3.25-.12,5.75,2.5,6.36,5.51Z"/>
  <path class="st0" d="M317.97,53.3c.56-2.05,1.12-5.87,5.89-10.9,9.79-10.31,23.74-1.37,17.94,6.93-2.26,3.23-7.89,3.02-9.41-.4-.31-.69-1.39-5.43-5.48-4.47-11.28,2.66-9.32,30.56-9.32,35.02.02,12.87.06,14.87,6.7,16.78.37.11.69.55.55.94-.36,1-3.64.51-4.42.51-1.99,0-3.99,0-5.98,0-2.45,0-4.91,0-7.36,0-2.09,0-4.91.48-6.92-.21-1.74-.6,1.12-1.35,1.5-1.49,1.14-.43,2.21-1.05,3.02-1.98.9-1.03,1.4-2.35,1.64-3.69.78-4.29.41-9.12.47-13.48.07-4.84.09-9.67.02-14.51-.04-2.75-.09-5.5-.26-8.24-.09-1.47-.06-3.2-.59-4.6-2.04-5.37-7.54-2.96-5.97-4.94.72-.91,1.13-.13,13.65-4.99.29-.11,3.41-1.33,3.85-.65.1.16.33,7.62-.15,14.01l.63.34Z"/>
  <g>
    <path class="st0" d="M242.04,67.57c.05,1.5.19,2.98.39,4.44.55,3.87,1.55,7.77,3.08,11.37,1.56,3.7,3.78,7.2,6.85,9.82,2.45,2.1,5.43,3.58,8.64,4,3.03.4,6.11-.16,8.84-1.51,3.05-1.51,5.57-3.92,7.46-6.72,2.35-3.47,3.76-7.51,4.5-11.62.57-3.22.73-6.51.59-9.78-.71-16.6-13.14-34.38-28.7-25.91-.8.44-4.65,2.53-7.85,8.36-2.9,5.28-4.01,11.51-3.8,17.56ZM232.2,57.5c.36-1,.79-1.97,1.28-2.92,1.06-2.04,2.36-3.96,3.8-5.75,1.33-1.66,2.84-3.19,4.54-4.48,1.22-.92,7.92-5.98,17.97-6.62,31.02-1.98,41.68,30.12,29.4,47.82-1.64,2.36-3.58,4.51-5.79,6.35-2.09,1.74-4.41,3.21-6.89,4.34-2.41,1.11-4.96,1.91-7.57,2.4-2.58.48-5.22.66-7.85.55-2.61-.12-5.21-.52-7.73-1.21-2.5-.68-4.93-1.64-7.22-2.86s-4.4-2.7-6.31-4.42-3.61-3.71-5-5.89-2.55-4.7-3.3-7.26c-.81-2.77-1.2-5.65-1.2-8.53,0-3.9.51-7.85,1.85-11.52Z"/>
    <path class="st0" d="M276.4,63.73c-7.51,2.61-11.85,10.5-10.03,18.24-2.61-7.51-10.5-11.85-18.24-10.02,7.51-2.61,11.85-10.5,10.03-18.25,2.61,7.51,10.5,11.85,18.25,10.03Z"/>
  </g>
</svg>